<?xml version="1.0" standalone="no"?>
<!DOCTYPE svg PUBLIC "-//W3C//DTD SVG 20010904//EN"
 "http://www.w3.org/TR/2001/REC-SVG-20010904/DTD/svg10.dtd">
<svg version="1.0" xmlns="http://www.w3.org/2000/svg"
 width="500.000000pt" height="500.000000pt" viewBox="0 0 500.000000 500.000000"
 preserveAspectRatio="xMidYMid meet">
<metadata>
Created by potrace 1.11, written by Peter Selinger 2001-2013
</metadata>
<g transform="translate(0.000000,500.000000) scale(0.100000,-0.100000)"
fill="#000000" stroke="none">
<path d="M60 2555 l0 -1145 215 0 215 0 2 893 3 892 52 -205 c188 -750 265
-1056 267 -1065 1 -5 5 -19 9 -30 3 -11 8 -31 11 -45 3 -14 28 -118 57 -232
l53 -208 223 0 222 0 10 38 c14 51 182 723 186 742 22 97 251 990 255 990 3 0
5 -398 5 -885 l-1 -885 213 0 c163 0 213 3 214 13 0 6 2 522 2 1144 l2 1133
-347 0 -346 0 -11 -32 c-5 -18 -29 -105 -51 -193 -23 -88 -59 -225 -80 -305
-21 -80 -55 -208 -75 -285 -181 -693 -202 -768 -205 -725 -2 21 -5 34 -28 120
-21 76 -71 262 -78 290 -12 49 -35 135 -54 205 -128 477 -234 875 -238 898
l-4 27 -349 0 -349 0 0 -1145z"/>
<path d="M2728 3693 c-3 -7 -2 -2252 1 -2275 1 -5 97 -8 214 -8 l213 0 -1 883
c-1 485 1 886 3 891 3 6 158 -593 177 -687 2 -10 7 -27 10 -37 3 -10 8 -27 10
-37 2 -10 42 -171 90 -358 100 -393 95 -373 101 -405 3 -14 8 -34 11 -45 4
-11 8 -24 9 -30 1 -5 7 -30 14 -55 6 -25 16 -62 21 -82 l10 -38 222 0 222 0
85 338 c46 185 85 342 87 347 1 6 4 19 7 30 3 11 35 137 71 280 37 143 97 382
135 530 l68 270 1 -897 1 -898 215 0 215 0 0 1145 0 1145 -348 0 -348 0 -19
-72 c-10 -40 -40 -156 -67 -258 -28 -102 -51 -193 -53 -202 -2 -10 -29 -111
-59 -225 -30 -115 -67 -253 -81 -308 -15 -55 -42 -161 -62 -235 -19 -74 -36
-139 -38 -145 -1 -5 -8 -32 -15 -59 -16 -59 -16 -59 -60 108 -16 61 -39 147
-50 191 -12 44 -23 87 -25 95 -2 8 -45 168 -95 355 -50 187 -93 348 -95 357
-4 21 -71 269 -92 346 l-14 52 -344 0 c-189 0 -345 -3 -347 -7z"/>
</g>
</svg>
