<svg xmlns="http://www.w3.org/2000/svg" width="60" height="60" viewBox="0 0 60 60">
    <g fill="none" fill-rule="evenodd" transform="translate(-4 -4)">
        <rect width="48" height="48" x="10" y="10" fill="#DD4D44" rx="10" transform="rotate(45 34 34)"/>
        <path fill="#FFF" d="M44 30.452c0 2.451-.618 4.75-1.855 6.898-1.236 2.148-3.127 4.364-5.672 6.65l-1.613-1.825c2.724-3.134 4.086-6.028 4.086-8.682-1.541-.627-2.312-1.788-2.312-3.484 0-1.069.323-2.004.968-2.806S39.206 26 40.478 26c1.04 0 1.887.433 2.54 1.3.655.866.982 1.917.982 3.152zm-10.86 0c0 2.451-.618 4.75-1.855 6.898-1.237 2.148-3.127 4.364-5.672 6.65L24 42.175c2.724-3.134 4.086-6.028 4.086-8.682-1.541-.627-2.312-1.788-2.312-3.484 0-1.069.323-2.004.968-2.806S28.346 26 29.618 26c1.04 0 1.886.433 2.54 1.3.655.866.982 1.917.982 3.152z"/>
    </g>
</svg>
