<svg xmlns="http://www.w3.org/2000/svg" width="21" height="19" viewBox="0 0 21 19">
    <path fill="#DD4D44" fill-rule="evenodd" d="M19.286 8.286c.713 0 1.285.572 1.285 1.285 0 .714-.572 1.286-1.285 1.286h-.15l-1.156 6.65c-.11.612-.643 1.064-1.266 1.064H3.857c-.623 0-1.155-.452-1.265-1.064l-1.156-6.65h-.15C.573 10.857 0 10.285 0 9.571c0-.713.573-1.285 1.286-1.285h18zM4.872 16.32c.351-.03.622-.341.592-.693l-.321-4.178c-.03-.352-.342-.623-.693-.593-.352.03-.623.342-.593.693l.322 4.179c.03.331.311.592.642.592h.05zM9 15.68V11.5c0-.352-.291-.643-.643-.643-.351 0-.643.291-.643.643v4.179c0 .351.292.642.643.642.352 0 .643-.29.643-.642zm3.857 0V11.5c0-.352-.291-.643-.643-.643-.351 0-.643.291-.643.643v4.179c0 .351.292.642.643.642.352 0 .643-.29.643-.642zm3.536.05l.321-4.179c.03-.351-.24-.663-.592-.693-.352-.03-.663.241-.693.593l-.322 4.178c-.03.352.241.663.593.693h.05c.331 0 .613-.26.643-.592zM4.78 3.504l-.934 4.139H2.521l1.015-4.43c.26-1.175 1.295-1.999 2.5-1.999h1.678c0-.351.292-.643.643-.643h3.857c.352 0 .643.292.643.643h1.678c1.205 0 2.24.824 2.5 2l1.015 4.429h-1.326l-.934-4.139c-.14-.592-.653-1.004-1.255-1.004h-1.678c0 .352-.291.643-.643.643H8.357c-.351 0-.643-.291-.643-.643H6.037c-.603 0-1.115.412-1.256 1.004z"/>
</svg>
