<svg xmlns="http://www.w3.org/2000/svg" width="81" height="57" viewBox="0 0 81 57">
    <g fill="#405584">
        <path d="M80.7 28.581c-.017-.06-.014-.125-.038-.18-.067-.165-.168-.314-.293-.44 0 0 0-.003-.004-.003l-15.622-15.62c-.253-.25-.594-.393-.952-.393l-10.274-.007V5.476c0-2.901-2.349-5.263-5.241-5.263H5.481C2.592.213.236 2.575.236 5.476L.233 44.553c0 2.901 2.352 5.263 5.245 5.263h5.437c.644 3.952 4.067 6.971 8.18 6.971 4.115 0 7.534-3.023 8.182-6.97H56.52c.645 3.95 4.067 6.97 8.178 6.97 4.114 0 7.533-3.023 8.18-6.97h6.501c.746 0 1.347-.608 1.35-1.353l.04-19.54c-.003-.122-.04-.23-.07-.343zm-4.553-1.016h-8.175l.888-2.288c.27-.698-.07-1.484-.77-1.755-.698-.271-1.478.07-1.751.772l-1.269 3.27H53.639V14.65l9.598.01 12.91 12.905zM5.48 2.925h42.802c1.4 0 2.538 1.144 2.538 2.55v7.816c0 .176.047.345.118.501v20.486H2.936v-13.79h23.76v1.41c-.01 1.427.84 2.058 1.343 2.302.318.155.648.233.98.233.722 0 1.251-.352 1.582-.616l8.62-6.738c.692-.545 1.077-1.247 1.077-1.979.003-.691-.331-1.335-.935-1.816-2.94-2.328-5.896-4.64-8.86-6.944-1.147-.884-2.801-.566-3.462.64-.206.38-.321.848-.331 1.397-.014.46-.014.918-.014 1.38H2.936V5.478c.004-1.41 1.141-2.555 2.545-2.555zm23.915 7.41c-.003-.454-.003-.911 0-1.42 2.646 2.058 5.285 4.125 7.928 6.212l-7.928 6.195.004-2.189c0-.749-.608-1.355-1.35-1.355H2.94v-5.314h25.11c.745 0 1.35-.607 1.35-1.356l-.004-.772zm-10.3 43.74c-3.082 0-5.59-2.52-5.59-5.614s2.508-5.616 5.59-5.616c3.081 0 5.589 2.522 5.589 5.616s-2.508 5.615-5.59 5.615zm0-13.94c-4.114 0-7.533 3.022-8.181 6.97H5.478c-1.401 0-2.542-1.145-2.542-2.552V36.99h48v10.116h-23.66c-.647-3.951-4.07-6.97-8.18-6.97zm45.6 13.94c-3.082 0-5.586-2.52-5.586-5.614s2.504-5.616 5.585-5.616c3.082 0 5.59 2.522 5.59 5.616s-2.505 5.615-5.59 5.615zm8.18-6.97c-.644-3.951-4.067-6.97-8.18-6.97-4.111 0-7.53 3.022-8.178 6.97h-2.883v-16.83H78.06l-.033 16.83h-5.15z"/>
        <ellipse cx="8.87" cy="26.853" rx="1.296" ry="1.301"/>
        <ellipse cx="13.918" cy="26.853" rx="1.296" ry="1.301"/>
        <ellipse cx="18.971" cy="26.853" rx="1.296" ry="1.301"/>
        <ellipse cx="19.106" cy="48.461" rx="2.366" ry="2.376"/>
        <ellipse cx="64.54" cy="48.461" rx="2.366" ry="2.376"/>
    </g>
</svg>
