<svg xmlns="http://www.w3.org/2000/svg" width="63" height="56" viewBox="0 0 63 56">
    <g fill="#DF554D">
        <path d="M62.243 50.191l-3.514-2.395V15.013h2.761c.502 0 .879-.252 1.13-.63.25-.379.125-.883-.126-1.261l-4.769-6.935c-.25-.378-.627-.504-1.003-.504H53.96V4.548c0-.378-.126-.757-.377-.883L50.196.387c-.25-.252-.502-.378-.878-.378h-35.89c-.377 0-.628.126-.879.378L9.161 3.665c-.251.252-.377.63-.377.883v1.135h-2.76c-.502 0-.879.252-1.004.504L.25 12.996c-.251.378-.251.882-.126 1.26.126.379.628.631 1.13.631H4.14V47.67L.627 50.065C.251 50.443 0 50.822 0 51.2v3.53c0 .757.502 1.261 1.255 1.261H61.49c.753 0 1.255-.504 1.255-1.26V51.2c0-.378-.25-.757-.502-1.009zM11.294 5.052l2.635-2.648h34.887l2.635 2.648v.63H11.294v-.63zM6.651 8.204h49.443l3.012 4.287H3.639l3.012-4.287zm49.443 6.809v32.152H25.725V22.326c0-.756-.501-1.26-1.254-1.26H10.29c-.754 0-1.256.504-1.256 1.26v24.84H6.651V15.012h49.443zM23.216 47.165h-11.67V23.587h11.67v23.578zm37.02 6.305H2.51v-1.64l3.263-2.143h51.2l3.262 2.143v1.64z"/>
        <path d="M29.24 43.004h23.34c.753 0 1.255-.504 1.255-1.26V22.325c0-.756-.502-1.26-1.255-1.26H29.24c-.754 0-1.256.504-1.256 1.26v19.417c0 .757.502 1.261 1.255 1.261zm1.254-19.417h20.831v16.896h-20.83V23.587z"/>
    </g>
</svg>
